<?xml version="1.0" encoding="utf-8"?>
<!-- Generator: Adobe Illustrator 23.1.0, SVG Export Plug-In . SVG Version: 6.00 Build 0)  -->
<svg version="1.1" id="Layer_1" xmlns="http://www.w3.org/2000/svg" xmlns:xlink="http://www.w3.org/1999/xlink" x="0px" y="0px"
	 viewBox="0 0 371 318" style="enable-background:new 0 0 371 318;" xml:space="preserve">
<style type="text/css">
	.st0{fill-rule:evenodd;clip-rule:evenodd;fill:#F7F7F7;stroke:#9ECFE8;stroke-width:7;stroke-miterlimit:10;}
	.st1{fill:#C9E5F7;stroke:#1986CF;stroke-width:12;stroke-linecap:round;stroke-miterlimit:10;}
	.st2{fill:none;stroke:#1986CF;stroke-width:12;stroke-linecap:round;stroke-miterlimit:10;}
	.st3{fill:#9ECFE8;}
</style>
<rect x="7.8" y="7.3" class="st0" width="354.5" height="304"/>
<g>
	<line class="st1" x1="94.8" y1="87.3" x2="146.8" y2="139.3"/>
	<line class="st1" x1="146.8" y1="87.3" x2="94.8" y2="139.3"/>
</g>
<g>
	<line class="st1" x1="218.8" y1="87.3" x2="270.8" y2="139.3"/>
	<line class="st1" x1="270.8" y1="87.3" x2="218.8" y2="139.3"/>
</g>
<path class="st2" d="M74.6,243.6c12.4-21.6,33.1-13.7,41.3-7.1c8.2,6.6,16.5,14.8,27.1,14.8c18.6,0,30.3-25.5,48.9-24.2
	c18.7,1.4,29.8,29.5,48,25.1c9.6-2.3,14.5-12.8,21.9-19.2c13.9-12.1,38.8-7.2,47.1,9.3"/>
<rect x="334.8" y="18.3" class="st3" width="15" height="15"/>
<rect x="304.8" y="18.3" class="st3" width="15" height="15"/>
<rect x="274.8" y="18.3" class="st3" width="15" height="15"/>
<rect x="334.8" y="18.6" class="st3" width="15" height="15"/>
<rect x="304.8" y="18.6" class="st3" width="15" height="15"/>
<rect x="274.8" y="18.6" class="st3" width="15" height="15"/>
</svg>
