<svg id="svg8" width="128" height="128" version="1.1" viewBox="0 0 33.867 33.867" xmlns="http://www.w3.org/2000/svg">
 <g id="layer1" transform="translate(-28.111 -144.3)">
  <g id="g4755" transform="matrix(.061826 0 0 -.061826 28.111 173.93)">
   <g id="g4757" transform="scale(.1)">
    <path id="path4759" d="m3873.1 1003.2c-17.38 12.37-14.49 52.35 42.67 176.87 22.44 48.89 73.64 131.2 162.65 209.86 10.31-32.35 16.6-63.37 16.42-92.25-1.15-192.66-138.61-264.61-221.74-294.48zm-731.68-166.79c-23.3-12.191-44.66-19.851-54.59-13.941-7.28 4.348 9.61 20.398 9.61 20.398s118.81 127.8 165.6 186c27.22 33.84 58.78 74.01 93.17 118.94 0.28-4.49 0.43-8.94 0.43-13.34-0.35-153.12-148.26-256.5-214.22-298.06zm-949.78 453.18c-54.96-133.99-169.99-476.78-240-458.41-60.1 15.769-96.7 276.35-12 532.8 42.63 129.09 133.7 283.34 187.2 343.21 86.13 96.34 180.96 127.85 204 88.79 29.37-49.77-104.74-422.4-139.2-506.39zm-1149.6-781.52c-157.8-172.15-378.26-237.21-472.8-182.41-102.08 59.192-61.652 312.63 132 495.31 118.03 111.33 270.4 213.87 371.48 277.03 23 13.84 56.8 34.17 97.87 58.78 6.81 3.88 10.65 6.03 10.65 6.03l-0.15 0.26c7.93 4.74 16.05 9.61 24.44 14.62 70.46-260.02 2.14-488.94-163.49-669.62zm3672.1 1238c-191.45-1.01-357.27-46.97-496.27-115.48-50.84 101.46-102.29 190.72-110.93 257.09-10.09 77.48-21.78 123.7-9.6 216 12.19 92.3 65.59 223 64.81 232.79s-11.98 56.81-122.4 57.61c-110.43 0.79-204.89-21.24-216-50.4-11.12-29.16-32.38-94.78-45.61-163.2-19.34-100.13-220.47-457.23-334.67-644.05-37.35 72.91-69.11 137.2-75.73 188.04-10.08 77.48-21.78 123.7-9.6 216.01 12.19 92.29 65.59 223.01 64.81 232.8s-11.97 56.8-122.4 57.6c-110.43 0.79-204.89-21.24-216-50.4-11.12-29.16-22.99-97.29-45.61-163.2-22.62-65.92-289.98-661.61-360-816.01-35.68-78.67-66.73-141.87-88.65-185.04-0.06 0.11-0.14 0.24-0.14 0.24s-1.35-2.87-3.68-7.72c-18.76-36.74-29.93-57.068-29.93-57.068s0.12-0.281 0.33-0.761c-14.88-26.981-30.83-52.039-38.73-52.039-5.52 0-16.57 71.82 2.41 170.4 39.78 206.64 135.35 528.9 134.4 540-0.5 5.69 17.76 61.84-62.41 91.2-77.93 28.52-105.68-19.05-112.79-19.2-6.89-0.15-12.01-16.81-12.01-16.81s86.82 362.4-165.6 362.4c-157.81 0-376.48-172.63-484.2-329.11-67.98-37.08-213.45-116.49-367.79-201.29-59.28-32.56-119.77-65.85-177.13-97.45-3.9 4.32-7.79 8.65-11.8 12.93-306.07 326.55-871.89 557.52-847.88 996.53 8.727 159.6 64.203 579.84 1087.2 1089.6 838 417.58 1508.9 302.67 1624.8 48 165.62-363.84-358.54-1040-1228.8-1137.6-331.58-37.17-506.17 91.33-549.6 139.2-45.71 50.38-52.53 52.65-69.6 43.2-27.8-15.41-10.18-59.89 0-86.4 25.99-67.63 132.61-187.55 314.4-247.2 159.92-52.48 549.22-81.31 1020 100.8 527.3 203.96 939.04 771.34 818.1 1245.6-122.99 482.35-922.76 640.92-1679.7 372-450.49-160.04-938.16-411.23-1288.8-739.2-416.92-389.97-483.4-729.38-456.01-871.2 97.34-503.91 791.89-832.06 1070-1075.3-13.73-7.57-26.6-14.68-38.31-21.14-139.44-68.98-668.88-346.05-801.31-638.8-150.22-332.07 23.915-570.32 139.2-602.4 357.18-99.391 723.72 79.379 920.7 373.19 196.94 293.74 172.89 676.22 82.5 850.81-1.12 2.17-2.36 4.29-3.51 6.44 36 21.31 72.72 42.98 109.11 64.35 70.97 41.67 140.63 80.55 201.09 113.45-33.82-92.69-58.6-203.79-71.49-364.24-15.14-188.5 62.11-432.15 163.2-528.01 44.51-42.2 98.06-43.192 132-43.192 117.63 0 171.31 97.86 230.4 213.6 72.49 141.95 136.8 307.2 136.8 307.2s-80.72-446.4 139.21-446.4c80.13 0 160.74 103.91 196.64 156.89 0.1-0.582 0.15-0.89 0.15-0.89s2.09 3.449 6.17 10.367c8.32 12.722 13.03 20.82 13.03 20.82s0.16 0.84 0.42 2.301c32.21 55.93 103.65 183.44 210.79 393.71 138.42 271.67 271.19 612 271.19 612s12.35-83.21 52.8-220.8c23.8-80.96 74.36-170.45 114.25-256.27-32.11-44.55-51.85-70.14-51.85-70.14s0.19-0.47 0.54-1.33c-25.66-34.06-54.43-70.82-84.53-106.66-109.25-130.12-239.38-278.71-256.81-321.6-20.52-50.531-15.67-87.699 24-117.6 28.98-21.839 80.57-25.226 134.4-21.597 98.18 6.597 167.26 30.949 201.34 45.781 53.13 18.789 115 48.34 173.07 91.02 107.17 78.789 171.81 191.5 165.6 340.8-3.44 82.28-29.68 163.83-62.87 240.82 9.73 13.98 19.48 28.09 29.26 42.38 168.95 246.99 300 518.4 300 518.4s12.35-83.2 52.81-220.8c20.47-69.65 60.86-145.62 97.18-220.14-158.86-129.08-257.38-279.06-291.59-377.46-63.25-181.97-13.71-264.43 79.21-283.2 42.09-8.511 101.53 10.778 146.25 29.707 55.64 18.45 122.5 49.18 184.95 95.082 107.17 78.789 210.21 189.12 204 338.41-2.84 67.97-21.27 135.43-46.28 200.24 134.66 56.09 309.01 87.28 531.08 61.35 476.4-55.63 569.86-353.09 552-477.59-17.87-124.51-117.8-192.94-151.21-213.61-33.4-20.656-43.6-27.828-40.79-43.199 4.06-22.34 19.51-21.48 47.99-16.68 39.22 6.621 250.17 101.27 259.2 331.08 11.47 291.76-268.06 612.24-763.2 609.6" fill="#cd4a9c"/>
   </g>
  </g>
 </g>
</svg>
