<?xml version="1.0" encoding="utf-8"?>
<!-- Generator: Adobe Illustrator 23.1.0, SVG Export Plug-In . SVG Version: 6.00 Build 0)  -->
<svg version="1.1" id="logo_art" xmlns="http://www.w3.org/2000/svg" xmlns:xlink="http://www.w3.org/1999/xlink" x="0px" y="0px"
	 viewBox="0 0 128 117.9" style="enable-background:new 0 0 128 117.9;" xml:space="preserve">
<style type="text/css">
	.st0{fill:#FC6D26;}
	.st1{fill:#E24329;}
	.st2{fill:#FCA326;}
</style>
<title>gitlab-icon-rgb</title>
<g>
	<g id="g44">
		<path id="path46" class="st0" d="M127.8,67.4l-7.2-22L106.4,1.7c-0.4-1.3-1.8-2-3.1-1.5c-0.7,0.2-1.3,0.8-1.5,1.5L87.6,45.4H40.4
			L26.2,1.7c-0.4-1.3-1.8-2-3.1-1.6c-0.7,0.2-1.3,0.8-1.6,1.6L7.4,45.4L0.3,67.4c-0.7,2,0.1,4.2,1.8,5.5l62,45l62-45
			C127.7,71.6,128.4,69.4,127.8,67.4"/>
	</g>
	<g id="g48">
		<path id="path50" class="st1" d="M64,117.9L64,117.9l23.6-72.5H40.4L64,117.9z"/>
	</g>
	<g id="g56">
		<path id="path58" class="st0" d="M64,117.9L40.4,45.4h-33L64,117.9z"/>
	</g>
	<g id="g64">
		<path id="path66" class="st2" d="M7.4,45.4L7.4,45.4l-7.2,22c-0.7,2,0.1,4.2,1.8,5.5l62,45L7.4,45.4z"/>
	</g>
	<g id="g72">
		<path id="path74" class="st1" d="M7.4,45.4h33L26.2,1.7c-0.4-1.3-1.8-2-3.1-1.5c-0.7,0.2-1.3,0.8-1.5,1.5L7.4,45.4z"/>
	</g>
	<g id="g76">
		<path id="path78" class="st0" d="M64,117.9l23.6-72.5h33L64,117.9z"/>
	</g>
	<g id="g80">
		<path id="path82" class="st2" d="M120.6,45.4L120.6,45.4l7.2,22c0.7,2-0.1,4.2-1.8,5.5l-62,45L120.6,45.4L120.6,45.4z"/>
	</g>
	<g id="g84">
		<path id="path86" class="st1" d="M120.6,45.4h-33l14.2-43.7c0.4-1.3,1.8-2,3.1-1.6c0.7,0.2,1.3,0.8,1.6,1.6L120.6,45.4L120.6,45.4
			z"/>
	</g>
</g>
</svg>
