<?xml version="1.0" encoding="utf-8"?>
<svg version="1.1" id="Layer_1" xmlns="http://www.w3.org/2000/svg" xmlns:xlink="http://www.w3.org/1999/xlink" x="0px" y="0px"
	 viewBox="0 0 128 128" style="enable-background:new 0 0 128 128;" xml:space="preserve">
<style type="text/css">
	.st0{fill:#339AF0;}
</style>
<path class="st0" d="M113.7,0H14.3C6.5,0,0,6.5,0,14.3v99.3c0,7.9,6.5,14.3,14.3,14.3h99.3c7.9,0,14.3-6.5,14.3-14.3V14.3
	C128,6.5,121.5,0,113.7,0L113.7,0z M100.7,81.2c0,1.2-1,1.7-2.2,2.2c-4.8,2.1-9.9,3.9-15.4,3.9c-7.7,0-11.3-4.8-20.5-4.8
	c-6.7,0-13.7,2.4-19.3,4.9c-0.3,0.2-0.7,0.2-1,0.3v13c0,0.5,0,1-0.2,1.4v0.3c-0.7,2.4-2.9,4.1-5.5,4.1c-3.2,0-5.8-2.6-5.8-5.8V38.4
	c-2.2-1.7-3.7-4.4-3.7-7.5c0-5.3,4.3-9.6,9.6-9.6c5.3,0,9.6,4.3,9.6,9.6c0,3.1-1.4,5.8-3.7,7.5v5.3c0.5-0.2,1-0.3,1.5-0.7
	c5.3-2.2,11.6-4.1,17.6-4.1c6.5,0,11.6,1.7,17.4,3.9c1.2,0.5,2.4,0.7,3.7,0.7c6.5,0,13.7-4.6,15.4-4.6c1.4,0,2.6,1,2.6,2.2
	L100.7,81.2L100.7,81.2z"/>
</svg>
