<?xml version="1.0" encoding="utf-8"?>
<!-- Generator: Adobe Illustrator 23.1.0, SVG Export Plug-In . SVG Version: 6.00 Build 0)  -->
<svg version="1.1" id="Layer_1" xmlns="http://www.w3.org/2000/svg" xmlns:xlink="http://www.w3.org/1999/xlink" x="0px" y="0px"
	 viewBox="0 0 129.6 147.5" style="enable-background:new 0 0 129.6 147.5;" xml:space="preserve">
<style type="text/css">
	.st0{clip-path:url(#SVGID_2_);}
	.st1{fill:url(#SVGID_3_);}
	.st2{clip-path:url(#SVGID_5_);}
	.st3{fill:url(#SVGID_6_);}
	.st4{clip-path:url(#SVGID_8_);}
	.st5{fill:url(#SVGID_9_);}
</style>
<g>
	<defs>
		<path id="SVGID_1_" d="M61.6,3.3L5.4,35.8C3.3,37,2,39.2,2,41.6v64.9c0,2.4,1.3,4.7,3.4,5.9l56.2,32.4c2.1,1.2,4.7,1.2,6.8,0
			l56.2-32.4c2.1-1.2,3.4-3.4,3.4-5.9V41.6c0-2.4-1.3-4.7-3.4-5.9L68.4,3.3C66.3,2.1,63.7,2.1,61.6,3.3"/>
	</defs>
	<clipPath id="SVGID_2_">
		<use xlink:href="#SVGID_1_"  style="overflow:visible;"/>
	</clipPath>
	<g class="st0">
		
			<linearGradient id="SVGID_3_" gradientUnits="userSpaceOnUse" x1="-1139.7507" y1="107.642" x2="-1138.1606" y2="107.642" gradientTransform="matrix(-50.8 103.5 -103.5 -50.8 -46667.0977 123453.1016)">
			<stop  offset="0.3" style="stop-color:#3E863D"/>
			<stop  offset="0.5" style="stop-color:#55934F"/>
			<stop  offset="0.8" style="stop-color:#5AAD45"/>
		</linearGradient>
		<path class="st1" d="M184.7,30.3L26.4-47.3l-81.2,165.6l158.3,77.6L184.7,30.3z"/>
	</g>
</g>
<g>
	<defs>
		<path id="SVGID_4_" d="M3.4,110.6c0.5,0.7,1.2,1.3,2,1.8l48.2,27.8l8,4.6c1.2,0.7,2.5,1,3.9,0.9c0.5,0,0.9-0.1,1.3-0.2L126.1,37
			c-0.5-0.5-1-0.9-1.6-1.3L87.8,14.5L68.3,3.3c-0.6-0.3-1.1-0.6-1.8-0.7L3.4,110.6z"/>
	</defs>
	<clipPath id="SVGID_5_">
		<use xlink:href="#SVGID_4_"  style="overflow:visible;"/>
	</clipPath>
	<g class="st2">
		
			<linearGradient id="SVGID_6_" gradientUnits="userSpaceOnUse" x1="-1140.8529" y1="1115.2771" x2="-1139.823" y2="1115.2771" gradientTransform="matrix(142.3631 -105.3431 -105.3431 -142.3631 279909.25 38710.1094)">
			<stop  offset="0.57" style="stop-color:#3E863D"/>
			<stop  offset="0.72" style="stop-color:#619857"/>
			<stop  offset="1" style="stop-color:#76AC64"/>
		</linearGradient>
		<path class="st3" d="M-65,53.2L46.8,204.5L194.6,95.3L82.8-56L-65,53.2z"/>
	</g>
</g>
<g>
	<defs>
		<path id="SVGID_7_" d="M64.3,2.5c-1,0.1-1.9,0.4-2.7,0.9l-56,32.3l60.4,110c0.8-0.1,1.7-0.4,2.4-0.8l56.2-32.4
			c1.7-1,2.9-2.7,3.3-4.6L66.3,2.6c-0.5-0.1-0.9-0.1-1.4-0.1L64.3,2.5"/>
	</defs>
	<clipPath id="SVGID_8_">
		<use xlink:href="#SVGID_7_"  style="overflow:visible;"/>
	</clipPath>
	<g class="st4">
		
			<linearGradient id="SVGID_9_" gradientUnits="userSpaceOnUse" x1="-1137.8163" y1="115.1125" x2="-1136.8763" y2="115.1125" gradientTransform="matrix(129.9 0 0 129.9 147805.8125 -14879.0586)">
			<stop  offset="0.16" style="stop-color:#6BBF47"/>
			<stop  offset="0.38" style="stop-color:#79B461"/>
			<stop  offset="0.47" style="stop-color:#75AC64"/>
			<stop  offset="0.7" style="stop-color:#659E5A"/>
			<stop  offset="0.9" style="stop-color:#3E863D"/>
		</linearGradient>
		<path class="st5" d="M5.6,2.4v143.2h122.2V2.4H5.6z"/>
	</g>
</g>
</svg>
