<svg xmlns="http://www.w3.org/2000/svg" viewBox="0 0 191 191"><defs><style>.cls-1{opacity:0.25;}.cls-2{fill:#fff;}</style></defs><title>icon-clock_1</title><g id="Layer_2" data-name="Layer 2"><g id="Layer_1-2" data-name="Layer 1"><g class="cls-1"><path class="cls-2" d="M95.5,191A95.5,95.5,0,1,1,191,95.5,95.61,95.61,0,0,1,95.5,191Zm0-166A70.5,70.5,0,1,0,166,95.5,70.58,70.58,0,0,0,95.5,25Z"/><path class="cls-2" d="M124.49,120.5a9,9,0,0,1-4.34-1.12l-29-16A9,9,0,0,1,86.5,95.5v-52a9,9,0,0,1,18,0V90.19l24.35,13.43a9,9,0,0,1-4.36,16.88Z"/></g></g></g></svg>