<svg xmlns="http://www.w3.org/2000/svg" viewBox="0 0 191 191"><defs><style>.cls-1{opacity:0.25;}.cls-2{fill:#fff;}</style></defs><title>icon-error_1</title><g id="Layer_2" data-name="Layer 2"><g id="Layer_1-2" data-name="Layer 1"><g class="cls-1"><path class="cls-2" d="M95.5,191A95.5,95.5,0,1,1,191,95.5,95.61,95.61,0,0,1,95.5,191Zm0-166A70.5,70.5,0,1,0,166,95.5,70.58,70.58,0,0,0,95.5,25Z"/><path class="cls-2" d="M95,113.5a10,10,0,0,1-10-10v-53a10,10,0,0,1,20,0v53A10,10,0,0,1,95,113.5Z"/><circle class="cls-2" cx="96" cy="129" r="10"/></g></g></g></svg>