<svg xmlns="http://www.w3.org/2000/svg" viewBox="0 0 218 208.21"><defs><style>.cls-1{fill:#fff;opacity:0.25;}</style></defs><title>icon-star_2</title><g id="Layer_2" data-name="Layer 2"><g id="Layer_1-2" data-name="Layer 1"><path class="cls-1" d="M170.8,208.21a9,9,0,0,1-4.18-1L109,176.89,51.39,207.18a9,9,0,0,1-13.06-9.49l11-64.16L2.72,88.1a9,9,0,0,1,5-15.35l64.41-9.36L100.93,5a9,9,0,0,1,16.14,0l28.81,58.37,64.41,9.36a9,9,0,0,1,5,15.35l-46.61,45.43,11,64.16a9,9,0,0,1-8.87,10.52ZM109,157.72a9,9,0,0,1,4.19,1l45.66,24-8.72-50.85a9,9,0,0,1,2.59-8l36.94-36-51-7.42a9,9,0,0,1-6.78-4.92L109,29.34,86.17,75.6a9,9,0,0,1-6.78,4.92l-51,7.42,36.94,36a9,9,0,0,1,2.59,8l-8.72,50.85,45.66-24A9,9,0,0,1,109,157.72Z"/></g></g></svg>